<svg width="32" height="32" viewBox="0 0 32 32" fill="none" xmlns="http://www.w3.org/2000/svg">
<rect width="32" height="32" rx="13" fill="#D9D9D9"/>
<path d="M3.26 20.16C3.74 19.1867 4.2 18.2267 4.64 17.28C5.08 16.32 5.53333 15.4067 6 14.54C6.26667 14.06 6.49333 13.7267 6.68 13.54C6.86667 13.34 7.11333 13.24 7.42 13.24C7.52667 13.24 7.64 13.26 7.76 13.3C7.88 13.3267 8 13.34 8.12 13.34C8.2 13.34 8.26 13.3333 8.3 13.32C8.11333 13.4267 7.86667 13.6933 7.56 14.12C7.26667 14.5333 6.96667 15.0133 6.66 15.56C6.35333 16.1067 6.08 16.62 5.84 17.1C6.09333 16.7933 6.36 16.4867 6.64 16.18C6.92 15.8733 7.22667 15.58 7.56 15.3C7.88 15.02 8.26 14.7333 8.7 14.44C9.15333 14.1333 9.59333 13.88 10.02 13.68C10.4467 13.48 10.7867 13.38 11.04 13.38C11.1333 13.38 11.2 13.3867 11.24 13.4C11.24 13.4 11.1667 13.5333 11.02 13.8C10.8733 14.0533 10.6867 14.3933 10.46 14.82C10.2467 15.2333 10.0267 15.68 9.8 16.16C9.57333 16.6267 9.36667 17.08 9.18 17.52C9.00667 17.9467 8.89333 18.3067 8.84 18.6C8.8 18.7733 8.78 18.9333 8.78 19.08C8.78 19.2933 8.82 19.4333 8.9 19.5C8.98 19.5667 9.06667 19.6 9.16 19.6C9.41333 19.6 9.67333 19.4867 9.94 19.26C10.2067 19.0333 10.46 18.7467 10.7 18.4C10.9533 18.04 11.1867 17.66 11.4 17.26C11.6133 16.86 11.7933 16.4867 11.94 16.14C12.1 16.14 12.18 16.2 12.18 16.32C12.0333 16.68 11.8467 17.08 11.62 17.52C11.4067 17.9467 11.16 18.3533 10.88 18.74C10.6133 19.1267 10.3133 19.4467 9.98 19.7C9.64667 19.9533 9.28667 20.08 8.9 20.08C8.63333 20.08 8.35333 19.9867 8.06 19.8C7.78 19.6133 7.64 19.2667 7.64 18.76C7.64 18.6133 7.65333 18.46 7.68 18.3C7.70667 18.1267 7.75333 17.94 7.82 17.74C7.92667 17.4733 8.05333 17.1867 8.2 16.88C8.34667 16.5733 8.58667 16.1533 8.92 15.62C9.01333 15.4733 9.06667 15.36 9.08 15.28C9.10667 15.2 9.12 15.1333 9.12 15.08C9.12 14.92 9.04667 14.84 8.9 14.84C8.78 14.84 8.6 14.9067 8.36 15.04C8.13333 15.1733 7.84667 15.4067 7.5 15.74C7.16667 16.06 6.76667 16.5133 6.3 17.1C5.84667 17.6867 5.32 18.5533 4.72 19.7C4.62667 19.8733 4.52 19.9667 4.4 19.98C4.29333 19.9933 4.14 20.0067 3.94 20.02C3.80667 20.0333 3.68 20.04 3.56 20.04C3.44 20.0533 3.34 20.0933 3.26 20.16ZM10.5578 26.38C9.29115 26.38 8.65781 25.86 8.65781 24.82C8.65781 24.3267 8.83115 23.8867 9.17781 23.5C9.52448 23.1133 9.93781 22.78 10.4178 22.5C11.0845 22.1 11.7378 21.78 12.3778 21.54C13.0178 21.3 13.6311 21.0867 14.2178 20.9C14.8045 20.7267 15.3511 20.5333 15.8578 20.32C15.9778 19.9733 16.0778 19.5933 16.1578 19.18C16.2378 18.7533 16.2978 18.34 16.3378 17.94C16.3778 17.54 16.3978 17.1933 16.3978 16.9C16.3978 16.5933 16.3778 16.3933 16.3378 16.3C16.1911 16.58 15.9911 16.9267 15.7378 17.34C15.4978 17.7533 15.2111 18.1667 14.8778 18.58C14.5578 18.98 14.2178 19.3133 13.8578 19.58C13.4978 19.8467 13.1311 19.98 12.7578 19.98C12.6245 19.98 12.4978 19.96 12.3778 19.92C12.0045 19.76 11.7311 19.5333 11.5578 19.24C11.3978 18.9467 11.3178 18.6133 11.3178 18.24C11.3178 17.64 11.4911 16.9933 11.8378 16.3C12.1845 15.6067 12.5978 14.9733 13.0778 14.4C13.4645 13.9333 13.9178 13.56 14.4378 13.28C14.9578 13 15.4845 12.86 16.0178 12.86C16.6311 12.86 17.2045 13.0667 17.7378 13.48C17.9378 13.64 18.0378 13.8133 18.0378 14C18.0378 14.2 17.9578 14.3 17.7978 14.3C17.6645 14.3 17.5711 14.2133 17.5178 14.04C17.3311 13.5467 17.0311 13.3 16.6178 13.3C16.2845 13.3 15.9045 13.4467 15.4778 13.74C15.0511 14.02 14.6511 14.3733 14.2778 14.8C13.9578 15.16 13.6445 15.5733 13.3378 16.04C13.0445 16.5067 12.7978 16.9667 12.5978 17.42C12.4111 17.8733 12.3178 18.2667 12.3178 18.6C12.3178 18.8267 12.3711 19.02 12.4778 19.18C12.5845 19.34 12.7511 19.42 12.9778 19.42C13.2845 19.42 13.6045 19.2733 13.9378 18.98C14.2845 18.6867 14.6111 18.3267 14.9178 17.9C15.2378 17.4733 15.5111 17.04 15.7378 16.6C15.9778 16.16 16.1445 15.7933 16.2378 15.5C16.3311 15.1933 16.4578 15.0067 16.6178 14.94C16.7778 14.86 16.9378 14.82 17.0978 14.82C17.2578 14.82 17.3911 14.78 17.4978 14.7C17.5511 14.9933 17.5845 15.2933 17.5978 15.6C17.6245 15.8933 17.6378 16.1933 17.6378 16.5C17.6378 17.1133 17.5978 17.6733 17.5178 18.18C17.4511 18.6867 17.3311 19.2267 17.1578 19.8C17.6378 19.5067 18.0511 19.14 18.3978 18.7C18.7578 18.2467 19.0511 17.7933 19.2778 17.34C19.5178 16.8733 19.7111 16.4733 19.8578 16.14C20.0178 16.14 20.0978 16.2 20.0978 16.32C19.9245 16.68 19.7045 17.12 19.4378 17.64C19.1845 18.16 18.8578 18.6667 18.4578 19.16C18.0711 19.64 17.5845 20.0133 16.9978 20.28C16.7711 20.92 16.4445 21.5933 16.0178 22.3C15.6045 23.0067 15.1111 23.6667 14.5378 24.28C13.9645 24.9067 13.3378 25.4133 12.6578 25.8C11.9778 26.1867 11.2778 26.38 10.5578 26.38ZM10.0778 25.98C10.3711 25.98 10.6778 25.9133 10.9978 25.78C11.3311 25.66 11.6445 25.5133 11.9378 25.34C12.2311 25.1667 12.4578 25.02 12.6178 24.9C12.9245 24.66 13.2378 24.36 13.5578 24C13.8778 23.64 14.1578 23.2933 14.3978 22.96C14.6245 22.64 14.8578 22.3 15.0978 21.94C15.3378 21.5933 15.5311 21.2467 15.6778 20.9L14.8578 21.16C14.4178 21.2933 13.9311 21.4533 13.3978 21.64C12.8778 21.84 12.3578 22.06 11.8378 22.3C11.3178 22.54 10.8445 22.8 10.4178 23.08C10.0445 23.3333 9.73781 23.6667 9.49781 24.08C9.24448 24.4933 9.11781 24.8533 9.11781 25.16C9.11781 25.3867 9.19781 25.58 9.35781 25.74C9.50448 25.9 9.74448 25.98 10.0778 25.98ZM17.9275 20.16C18.4875 19.0133 19.0675 17.8133 19.6675 16.56C20.2808 15.2933 20.9075 14.02 21.5475 12.74C22.1875 11.46 22.8208 10.24 23.4475 9.08C23.6742 8.68 23.8808 8.36667 24.0675 8.14C24.2675 7.91333 24.5275 7.8 24.8475 7.8C24.9675 7.8 25.1075 7.82 25.2675 7.86C25.4275 7.9 25.5808 7.90667 25.7275 7.88C25.5542 8.06667 25.3142 8.39333 25.0075 8.86C24.7142 9.32667 24.3808 9.88667 24.0075 10.54C23.6475 11.1933 23.2608 11.9 22.8475 12.66C22.4475 13.4067 22.0475 14.1667 21.6475 14.94C21.2608 15.7 20.9008 16.4133 20.5675 17.08C20.8342 16.7333 21.1075 16.4067 21.3875 16.1C21.6675 15.7933 21.9408 15.5267 22.2075 15.3C22.5008 15.0333 22.8675 14.7533 23.3075 14.46C23.7608 14.1667 24.2075 13.9133 24.6475 13.7C25.1008 13.4867 25.4608 13.38 25.7275 13.38C25.8208 13.38 25.8875 13.3867 25.9275 13.4C25.9275 13.4 25.8542 13.5333 25.7075 13.8C25.5608 14.0667 25.3742 14.4067 25.1475 14.82C24.9342 15.2333 24.7075 15.68 24.4675 16.16C24.2408 16.64 24.0408 17.1 23.8675 17.54C23.6942 17.9667 23.5808 18.32 23.5275 18.6C23.4875 18.8133 23.4675 18.9933 23.4675 19.14C23.4675 19.3533 23.5075 19.5 23.5875 19.58C23.6675 19.6467 23.7542 19.68 23.8475 19.68C24.0742 19.68 24.3142 19.5667 24.5675 19.34C24.8342 19.1 25.0942 18.8 25.3475 18.44C25.6008 18.08 25.8342 17.7 26.0475 17.3C26.2742 16.8867 26.4542 16.5 26.5875 16.14C26.7475 16.14 26.8275 16.2 26.8275 16.32C26.6808 16.68 26.4942 17.08 26.2675 17.52C26.0542 17.9467 25.8075 18.3533 25.5275 18.74C25.2475 19.1267 24.9408 19.4467 24.6075 19.7C24.2742 19.9533 23.9208 20.08 23.5475 20.08C23.2808 20.08 23.0075 19.9867 22.7275 19.8C22.4475 19.6133 22.3075 19.2733 22.3075 18.78C22.3075 18.6333 22.3208 18.48 22.3475 18.32C22.3742 18.1467 22.4208 17.9533 22.4875 17.74C22.5675 17.4733 22.7008 17.18 22.8875 16.86C23.0742 16.5267 23.3142 16.1133 23.6075 15.62C23.7408 15.3933 23.8075 15.2133 23.8075 15.08C23.8075 14.92 23.7275 14.84 23.5675 14.84C23.4342 14.84 23.2542 14.9067 23.0275 15.04C22.8008 15.1733 22.5142 15.4067 22.1675 15.74C21.8342 16.06 21.4208 16.5267 20.9275 17.14C20.4342 17.7533 19.9075 18.6133 19.3475 19.72C19.2542 19.8933 19.1475 19.9867 19.0275 20C18.9208 20 18.7742 20.0067 18.5875 20.02C18.4675 20.0333 18.3475 20.04 18.2275 20.04C18.1075 20.0533 18.0075 20.0933 17.9275 20.16Z" fill="black"/>
</svg>
